<?xml version="1.0"?>
<svg width="640" height="480" xmlns="http://www.w3.org/2000/svg" xmlns:svg="http://www.w3.org/2000/svg" style="vector-effect: non-scaling-stroke;">
 <!-- Created with SVG-edit - https://github.com/SVG-Edit/svgedit-->
 <defs style="vector-effect: non-scaling-stroke;">
  <linearGradient id="svg_8" style="vector-effect: non-scaling-stroke;">
   <stop offset="0" stop-color="#ff003b" style="vector-effect: non-scaling-stroke;"/>
   <stop offset="1" stop-color="#00ffc4" style="vector-effect: non-scaling-stroke;"/>
  </linearGradient>
 </defs>
 <g class="layer">
  <title>Layer 1</title>
  <g id="svg_70">
   <path d="m153.315269,187.173589c27.726273,51.928816 33.139135,67.698877 23.971833,69.840506c-17.907712,4.183625 -14.309124,28.110408 10.755713,71.513994c31.433993,54.432876 93.003553,87.85962 150.836346,81.890618c22.447349,-2.316842 47.825075,-7.098228 56.394943,-10.625453c8.569824,-3.527269 3.311045,3.043637 -11.686195,14.601903c-75.024825,57.821009 -167.683804,53.7933 -241.605537,-10.502042c-29.473983,-25.635849 -70.025605,-100.536673 -70.025605,-129.34086c0,-8.160031 -6.685566,-16.066782 -14.856796,-17.57046c-13.363099,-2.459112 -11.568504,-8.93403 17.849751,-64.401769c17.988621,-33.917315 34.921934,-64.100743 37.629609,-67.074263c2.70772,-2.97352 21.038878,24.776975 40.735953,61.66781l-0.000015,0.000015zm238.331184,100.112368c-27.726288,-51.928801 -33.139135,-67.69892 -23.971878,-69.840506c17.907712,-4.183552 14.309139,-28.110393 -10.755668,-71.513994c-31.434008,-54.432891 -93.003628,-87.859634 -150.836391,-81.890647c-22.447349,2.316813 -47.82503,7.098287 -56.394883,10.625526c-8.569868,3.527196 -3.311075,-3.043681 11.686165,-14.601933c75.02484,-57.821038 167.683819,-53.793358 241.605552,10.502071c29.473998,25.635761 70.02559,100.536644 70.02559,129.340772c0,8.16009 6.685626,16.066782 14.856766,17.57046c13.363159,2.459156 11.568519,8.93403 -17.849691,64.401798c-17.988606,33.917271 -34.921964,64.100714 -37.629609,67.074263c-2.707735,2.97352 -21.038878,-24.776946 -40.735953,-61.667796l0,-0.000015z" fill="#5fbf00" id="svg_66" stroke="#000000" stroke-dasharray="null" stroke-linecap="null" stroke-linejoin="null"/>
   <path d="m250.727667,388.148096l165.013662,-208.30394l4.689302,14.345772l-154.406062,194.580422l-15.296909,-0.622245l0.000007,-0.000009zm-132.44047,-102.320306l162.49,-205.761179l15.023583,1.814172l-172.158109,217.6524l-5.355474,-13.705393zm50.872643,70.84206l194.482868,-246.178457l10.04929,8.098321l-194.5049,245.399509l-10.027258,-7.319374zm195.839272,-245.479347c68.194977,51.50768 79.961403,148.630598 26.224639,216.517407c-53.713549,67.85748 -152.903619,81.158489 -221.08857,29.658382c-68.185282,-51.500358 -79.951947,-148.622956 -26.246297,-216.470458c53.726754,-67.894385 152.924946,-81.20569 221.110228,-29.705332zm-231.013917,22.209628c-58.001263,73.274241 -45.284692,178.156154 28.363535,233.782675c73.658263,55.634101 180.77299,41.260778 238.774246,-32.013455c58.032844,-73.314138 45.308405,-178.186092 -28.349858,-233.820194c-73.648227,-55.626521 -180.755071,-41.263174 -238.787922,32.050973zm163.09609,63.592422c72.87201,55.040244 108.119467,113.057912 94.150117,130.705691c-13.953544,17.627812 -80.306391,-1.093748 -153.178401,-56.133992c-72.892073,-55.055398 -108.117675,-113.040586 -94.156465,-130.678083c13.951447,-17.645385 80.292676,1.050986 153.184749,56.106384zm-163.09609,-63.592422c-24.23038,30.61076 31.515824,99.11055 96.257906,148.010258c64.761849,48.914638 146.649494,84.369723 170.879875,53.758963c24.230628,-30.611072 -31.49215,-99.141002 -96.243989,-148.04808c-64.749981,-48.889729 -146.663164,-84.332213 -170.893792,-53.721141zm202.7147,13.541381c68.194977,51.50768 92.645134,132.606969 54.531507,180.756732c-38.105707,48.139758 -124.604409,45.40749 -192.78936,-6.092618c-68.185282,-51.500358 -92.651214,-132.5797 -54.545507,-180.719458c38.103609,-48.15733 124.618077,-45.445015 192.803359,6.055343zm-202.7147,-13.541381c-42.401567,53.566811 -17.001273,142.425103 56.646954,198.051624c73.658263,55.634101 168.089259,57.284407 210.490826,3.717597c42.417365,-53.586768 17.009421,-142.435378 -56.648842,-198.069479c-73.648227,-55.626521 -168.071574,-57.286509 -210.488938,-3.699741z" fill="url(#svg_8)" fill-opacity="0.61" id="svg_65" stroke="#000000" stroke-dasharray="null" stroke-linecap="null" stroke-linejoin="null" stroke-width="0.7"/>
   <text fill="#ed9442" font-family="Fantasy" font-size="23" font-style="normal" font-weight="bold" id="svg_64" stroke="#000000" stroke-dasharray="null" stroke-linecap="null" stroke-linejoin="null" text-anchor="middle" transform="matrix(4.06688 0 0 2.75175 -1859.23 -921.085)" x="581.600617" xml:space="preserve" y="498.668358">PVRR</text>
  </g>
 </g>
</svg>