<?xml version="1.0"?>
<svg width="640" height="480" xmlns="http://www.w3.org/2000/svg" xmlns:svg="http://www.w3.org/2000/svg" style="vector-effect: non-scaling-stroke;">
 <!-- Created with SVG-edit - https://github.com/SVG-Edit/svgedit-->
 <defs style="vector-effect: non-scaling-stroke;">
  <linearGradient id="svg_8" style="vector-effect: non-scaling-stroke;">
   <stop offset="0" stop-color="#ff003b" style="vector-effect: non-scaling-stroke;"/>
   <stop offset="1" stop-color="#00ffc4" style="vector-effect: non-scaling-stroke;"/>
  </linearGradient>
 </defs>
 <g class="layer">
  <title>Layer 1</title>
  <g id="svg_74">
   <path d="m240.665529,399.631523l160.809477,-205.312538l4.569829,14.139756l-150.472135,191.7861l-14.907177,-0.613309l0.000007,-0.000009zm-129.066178,-100.850909l158.350113,-202.806293l14.640815,1.788119l-167.771899,214.526747l-5.219029,-13.508573zm49.57652,69.824714l189.527873,-242.643147l9.793256,7.982023l-189.549343,241.875386l-9.771786,-7.214262zm190.849719,-241.954078c66.45752,50.767991 77.924163,146.49615 25.556493,213.408053c-52.345046,66.882995 -149.007972,79.992992 -215.45572,29.232466c-66.448071,-50.760774 -77.914947,-146.488618 -25.577599,-213.361778c52.357914,-66.91937 149.028754,-80.039515 215.476826,-29.278741zm-225.128191,21.890681c-56.523518,72.221968 -44.130938,175.597697 27.640894,230.425379c71.781613,54.835153 176.167292,40.668242 232.690803,-31.553717c56.554295,-72.261292 44.154046,-175.627205 -27.627566,-230.462358c-71.771833,-54.827682 -176.14983,-40.670604 -232.704132,31.590697zm158.94076,62.679186c71.015392,54.249825 105.36482,111.434315 91.75138,128.828658c-13.598039,17.374664 -78.260361,-1.078041 -149.275753,-55.327866c-71.034944,-54.264761 -105.363075,-111.417238 -91.757566,-128.801447c13.595994,-17.391983 78.246995,1.035893 149.281939,55.300654zm-158.94076,-62.679186c-23.613044,30.171166 30.71287,97.687248 93.805466,145.884718c63.111859,48.212186 142.913188,83.158109 166.526232,52.986943c23.613285,-30.171474 -30.689799,-97.717262 -93.791904,-145.921997c-63.100294,-48.187635 -142.926509,-83.121139 -166.539794,-52.949664zm197.549975,13.346916c66.45752,50.767991 90.28474,130.702632 53.142164,178.160929c-37.134857,47.448435 -121.429763,44.755404 -187.877511,-6.005123c-66.448071,-50.760774 -90.290665,-130.675755 -53.155807,-178.124189c37.132813,-47.465754 121.443082,-44.79239 187.891154,5.968384zm-197.549975,-13.346916c-41.321269,52.797551 -16.568118,140.37977 55.203715,195.207452c71.781613,54.835153 163.806715,56.46176 205.127983,3.664209c41.336664,-52.817221 16.576058,-140.389898 -55.205555,-195.225051c-71.771833,-54.827682 -163.78948,-56.463831 -205.126143,-3.64661z" fill="url(#svg_8)" fill-opacity="0.61" id="svg_73" stroke="#000000" stroke-dasharray="null" stroke-linecap="null" stroke-linejoin="null" stroke-width="0.7"/>
   <path d="m145.152292,205.874227c27.634658,50.861677 33.096523,66.342129 24.188851,68.557921c-17.400542,4.328496 -13.609734,27.868757 11.330235,70.358732c31.277396,53.287108 91.671023,85.525825 147.955482,78.980129c21.846375,-2.540681 46.518997,-7.543927 54.828043,-11.118473c8.309002,-3.574589 3.262604,2.961767 -11.214238,14.525126c-72.421497,57.846488 -162.761164,54.93888 -235.557998,-7.581413c-29.025466,-24.928103 -69.430641,-98.283295 -69.772718,-126.67182c-0.096908,-8.042277 -6.70558,-15.758304 -14.685918,-17.146632c-13.050918,-2.270469 -11.379065,-8.672518 16.628913,-63.676992c17.126268,-33.634039 33.268531,-63.575977 35.87172,-66.53762c2.603233,-2.961644 20.795651,24.178299 40.427642,60.311026l-0.000014,0.000015zm233.431503,95.936137c-27.634672,-50.861662 -33.096524,-66.342172 -24.188894,-68.557921c17.400543,-4.328423 13.609748,-27.868743 -11.330191,-70.358732c-31.27741,-53.287122 -91.671096,-85.525839 -147.955526,-78.980158c-21.846375,2.540652 -46.518952,7.543984 -54.827984,11.118544c-8.309047,3.574517 -3.262634,-2.96181 11.214209,-14.525155c72.421512,-57.846517 162.761178,-54.938938 235.558013,7.581442c29.025479,24.928016 69.430626,98.283266 69.772702,126.671733c0.096909,8.042335 6.705638,15.758304 14.685888,17.146632c13.050977,2.270511 11.37908,8.672518 -16.628855,63.67702c-17.126254,33.633995 -33.26856,63.575949 -35.87172,66.53762c-2.603248,2.961644 -20.79565,-24.17827 -40.427642,-60.311012l0,-0.000014z" fill="#5fbf00" id="svg_72" stroke="#000000" stroke-dasharray="null" stroke-linecap="null" stroke-linejoin="null"/>
   <text fill="#ed9442" font-family="Fantasy" font-size="23" font-style="normal" font-weight="bold" id="svg_71" stroke="#000000" stroke-dasharray="null" stroke-linecap="null" stroke-linejoin="null" text-anchor="middle" transform="matrix(3.96326 0 0 2.71223 -1113.7 -430.261)" x="403.658457" xml:space="preserve" y="329.826253">PVRR</text>
  </g>
 </g>
</svg>